<svg width="141" height="214" viewBox="0 0 141 214" fill="none" xmlns="http://www.w3.org/2000/svg">
<path fill-rule="evenodd" clip-rule="evenodd" d="M73.6203 165.418L80.7336 189.852C81.3077 192.025 82.9022 196.698 84.6866 198.004C86.9171 199.636 91.9394 199.403 93.8218 196.222C95.3277 193.677 94.7443 189.342 94.2643 187.492C93.8335 186.213 93.5639 183.519 95.9316 182.97C98.2994 182.421 102.312 181.171 104.022 180.614C104.923 180.293 106.96 180.215 107.897 182.47C108.143 183.06 108.352 183.684 108.565 184.319C109.369 186.721 110.232 189.297 113.333 190.893C117.256 192.91 121.868 189.461 122.059 185.895C122.211 183.042 120.455 175.362 119.558 171.879L106.933 128.513C105.995 126.095 103.695 120.645 101.997 118.19C99.8753 115.122 94.3635 110.056 86.699 109.655C79.0344 109.253 73.2829 111.805 69.1413 116.873C64.9997 121.94 62.7083 127.346 66.2653 138.948C67.376 142.764 68.7181 147.683 70.0415 152.535C71.3287 157.254 72.5983 161.908 73.6203 165.418ZM85.0844 157.166L87.9579 167.036C88.2426 168.416 89.2651 171.044 91.0774 170.516L100.301 167.831C101.55 167.701 103.772 166.61 102.662 163.282C101.553 159.954 96.8926 143.665 94.7011 135.936L92.6755 128.978C92.0965 127.391 90.2619 124.064 87.5549 123.448C84.1712 122.677 80.4496 123.761 79.3025 125.85C79.256 125.935 79.2101 126.018 79.1647 126.1C78.0896 128.049 77.3447 129.399 78.2742 133.17C79.0492 136.315 83.1372 150.478 85.0844 157.166Z" fill="#152091"/>
<path d="M28.9906 124.876C26.5163 125.42 28.0114 128.144 28.3617 128.745C29.2241 129.898 28.7726 129.433 31.0634 131.995C33.9268 135.199 36.7103 136.319 40.4791 135.398C43.4941 134.66 44.5524 136.728 44.7046 137.853L55.2097 173.938C57.0469 180.248 58.0033 181.725 58.6342 187.509C59.2592 193.24 53.9333 196.082 49.6915 195.379C45.0808 194.614 43.9032 190.569 42.3486 185.229C40.7941 179.89 40.2144 179.707 39.6552 178.992C39.0961 178.278 35.5239 176.86 31.5053 178.732C28.2903 180.23 28.3523 183.98 28.7851 185.668C29.7402 189.953 32.9806 199.717 38.301 204.487C44.9516 210.449 54.9961 209.982 61.5977 206.13C68.2776 202.232 70.858 196.94 71.9662 191.702C72.8527 187.512 71.4767 181.781 70.678 179.439L60.9266 145.944L53.7662 121.349C52.9748 118.63 50.6195 118.579 49.5407 118.893C43.5154 120.706 30.97 124.44 28.9906 124.876Z" fill="#152091"/>
<path d="M23.4449 112.448L17.1796 90.9269C12.0223 73.413 1.55164 37.7285 0.927376 35.1019C0.303113 32.4752 2.29788 31.3686 3.63947 31.1535C4.61049 30.8715 3.80519 30.9992 7.8935 30.0898C11.9818 29.1805 13.9952 32.7601 14.4908 34.6636L15.5272 38.2235L32.9571 98.0939C33.3811 99.5503 34.7022 99.8677 37.2912 99.114C40.0174 98.0278 45.8737 96.2763 47.8827 96.9082C50.781 97.8197 52.7616 100.403 52.483 104.872C52.2601 108.447 48.5503 110.054 46.7232 110.41L28.6003 115.686C25.0075 116.732 24.3254 114.862 23.4677 112.51L23.4449 112.448Z" fill="#152091"/>
<path d="M102.803 89.3453L96.5375 67.8243C91.3802 50.3104 80.9095 14.6258 80.2853 11.9992C79.661 9.37258 81.6558 8.26597 82.9974 8.05088C83.9684 7.7688 83.1631 7.89655 87.2514 6.98717C91.3397 6.0778 93.3531 9.65747 93.8488 11.561L94.8851 15.1208L112.315 74.9913C112.739 76.4476 114.06 76.7651 116.649 76.0113C119.375 74.9251 125.232 73.1736 127.241 73.8055C130.139 74.7171 132.12 77.2999 131.841 81.7691C131.618 85.3446 127.908 86.9512 126.081 87.3075L107.958 92.5836C104.334 93.6388 103.557 91.935 102.803 89.3453Z" fill="#152091"/>
<path fill-rule="evenodd" clip-rule="evenodd" d="M52.4614 16.7662C41.38 19.9923 35.012 31.5908 38.2381 42.6722L51.0514 86.6851C54.2775 97.7665 65.8761 104.134 76.9575 100.908C88.0389 97.6823 94.4069 86.0838 91.1808 75.0023L78.3675 30.9895C75.1414 19.908 63.5428 13.5401 52.4614 16.7662ZM56.3243 30.0348C52.2134 31.2315 49.8511 35.5342 51.0479 39.6451L63.5786 82.6871C64.7753 86.7979 69.078 89.1602 73.1889 87.9634C77.2997 86.7666 79.662 82.464 78.4653 78.3531L65.9346 35.3111C64.7378 31.2003 60.4351 28.838 56.3243 30.0348Z" fill="#152091"/>
<path fill-rule="evenodd" clip-rule="evenodd" d="M127.407 125.888C134.914 123.703 139.228 115.846 137.042 108.339C134.857 100.832 127 96.5183 119.493 98.7037C111.986 100.889 107.672 108.746 109.858 116.253C112.043 123.76 119.9 128.074 127.407 125.888ZM119.042 112.701L120.63 118.156C120.752 118.778 121.257 119.946 122.298 119.643L128.479 117.844C128.984 117.757 129.872 117.295 129.396 116.142C128.919 114.99 127.934 111.726 127.501 110.238C127.475 109.947 127.53 109.369 127.959 109.387C128.055 109.392 128.16 109.405 128.268 109.419C128.758 109.481 129.305 109.551 129.375 108.796C129.442 108.059 129.508 106.426 129.532 105.701C129.577 105.449 129.483 104.927 128.756 104.852C128.028 104.776 125.874 104.854 124.888 104.901C124.709 104.894 124.274 104.973 123.96 105.351C123.834 105.504 123.756 105.698 123.672 105.909C123.497 106.349 123.294 106.858 122.556 107.194C121.465 107.691 120.086 107.196 119.827 106.913C119.568 106.63 119.195 106.559 118.544 106.748C118.024 106.9 116.166 108.278 115.302 108.947C115.102 109.066 114.706 109.444 114.73 110.011C114.754 110.578 115.731 111.632 116.217 112.088L116.945 112.773C117.226 112.93 117.89 113.108 118.295 112.559C118.7 112.011 118.962 112.425 119.042 112.701Z" fill="#FC6133"/>
</svg>
