<svg width="46" height="50" viewBox="0 0 46 50" fill="none" xmlns="http://www.w3.org/2000/svg">
<path d="M33.1614 3.21948C33.301 2.78106 33.2623 2.30529 33.0537 1.89517C32.8452 1.48505 32.4835 1.17357 32.0469 1.02817C31.6104 0.882757 31.1342 0.915118 30.7213 1.11824C30.3085 1.32137 29.9922 1.67891 29.841 2.11348L28.091 7.36115C27.9514 7.79957 27.9901 8.27533 28.1987 8.68545C28.4073 9.09557 28.769 9.40705 29.2055 9.55246C29.642 9.69787 30.1183 9.66551 30.5311 9.46238C30.944 9.25926 31.2602 8.90171 31.4114 8.46715L33.1614 3.21948ZM43.82 3.17981C44.1478 3.50794 44.3318 3.95273 44.3318 4.41648C44.3318 4.88023 44.1478 5.32502 43.82 5.65315L37.9867 11.4865C37.8265 11.6584 37.6333 11.7963 37.4186 11.892C37.204 11.9876 36.9722 12.039 36.7373 12.0432C36.5023 12.0473 36.2689 12.0041 36.051 11.9161C35.8331 11.8281 35.6351 11.6971 35.469 11.5309C35.3028 11.3647 35.1718 11.1668 35.0838 10.9489C34.9957 10.731 34.9525 10.4976 34.9567 10.2626C34.9608 10.0276 35.0122 9.79589 35.1079 9.58122C35.2035 9.36656 35.3414 9.17336 35.5134 9.01315L41.3467 3.17981C41.6748 2.8521 42.1196 2.66802 42.5834 2.66802C43.0471 2.66802 43.4919 2.8521 43.82 3.17981ZM23.03 6.72648C22.4282 6.08171 21.6782 5.59341 20.845 5.30389C20.0118 5.01438 19.1207 4.93238 18.2486 5.06499C17.3766 5.19761 16.5501 5.54084 15.8407 6.06496C15.1313 6.58907 14.5603 7.27826 14.1774 8.07281L0.415373 36.6398C0.0287525 37.4433 -0.0921368 38.3489 0.0702064 39.2257C0.23255 40.1024 0.669701 40.9047 1.31837 41.5165L4.67604 44.6851C5.27783 45.2525 6.03375 45.6296 6.849 45.7691C7.66425 45.9085 8.50252 45.8042 9.25871 45.4691L12.565 44.0038C13.5851 46.2396 15.4459 47.9828 17.7433 48.8551C20.0408 49.7275 22.5896 49.6584 24.8365 48.6631C27.0834 47.6677 28.8471 45.8264 29.7447 43.5387C30.6424 41.251 30.6015 38.7016 29.631 36.4438L37.611 32.9065C38.402 32.556 39.0977 32.0215 39.6401 31.3475C40.1824 30.6735 40.5557 29.8795 40.7288 29.0319C40.9019 28.1842 40.8698 27.3075 40.6351 26.4748C40.4004 25.6421 39.97 24.8776 39.3797 24.2451L23.03 6.72648ZM26.4297 37.8578C26.9963 39.2612 26.9953 40.83 26.4269 42.2326C25.8584 43.6353 24.7671 44.7622 23.3833 45.3752C21.9995 45.9882 20.4316 46.0394 19.0107 45.5179C17.5899 44.9964 16.4274 43.9431 15.7687 42.5805L26.4297 37.8578ZM37.3334 17.2475C37.3334 16.7833 37.5177 16.3382 37.8459 16.01C38.1741 15.6819 38.6192 15.4975 39.0834 15.4975H43.75C44.2142 15.4975 44.6593 15.6819 44.9875 16.01C45.3157 16.3382 45.5 16.7833 45.5 17.2475C45.5 17.7116 45.3157 18.1567 44.9875 18.4849C44.6593 18.8131 44.2142 18.9975 43.75 18.9975H39.0834C38.6192 18.9975 38.1741 18.8131 37.8459 18.4849C37.5177 18.1567 37.3334 17.7116 37.3334 17.2475Z" fill="black"/>
</svg>
